<?xml version="1.0" encoding="utf-8"?>
<!-- Uploaded to: SVG Repo, www.svgrepo.com, Generator: SVG Repo Mixer Tools -->
<svg width="800px" height="800px" viewBox="0 0 32 32" fill="none" xmlns="http://www.w3.org/2000/svg">
<g clip-path="url(#clip0_901_2714)">
<path d="M25 1H7C6.45 1 6 1.45 6 2V7V9.5V14L15 23C15.83 23.83 16.17 23.83 17 23L26 14V9.57V7V2C26 1.45 25.55 1 25 1Z" fill="#FFE6EA"/>
<path d="M30.4102 9.58989C30.4102 9.58989 30.6252 9.46889 30.6402 9.45289C30.9102 9.61289 31.0002 9.65989 31.0002 9.99989V29.9999C31.0002 30.5499 30.5502 30.9999 30.0002 30.9999H2.00018C1.45018 30.9999 1.00018 30.5499 1.00018 29.9999V9.99989C1.00018 9.78989 1.14018 9.59989 1.40018 9.38989L1.48018 9.47989L6.00018 13.9999L15.0002 22.9999C15.8302 23.8299 16.1702 23.8299 17.0002 22.9999L26.0002 13.9999L30.4102 9.58989Z" fill="#FFC44D"/>
<path d="M1.3999 9.39C1.3999 9.39 3.5099 11.51 5.9999 14V7C5.9999 7 1.5599 9.27 1.3999 9.39ZM30.6084 9.39C30.6084 9.39 28.4944 11.51 26.0004 14V7C26.0004 7 30.4484 9.27 30.6084 9.39Z" fill="#668077"/>
<path d="M28.999 8.416L30 9C30.562 9.328 31 9.447 31 10V30C31 30.553 30.553 31 30 31H2C1.447 31 1 30.553 1 30V10C1 9.664 1.359 9.375 2 9L2.981 8.378M4 12L15 23C15.834 23.834 16.167 23.833 17 23L28 12M9.5 22.5L4 28M28 28L22.5 22.5M6 14V2C6 1.447 6.447 1 7 1H25C25.553 1 26 1.447 26 2V14M11 8H21M11 12H21" stroke="#000000" stroke-width="2" stroke-linecap="round" stroke-linejoin="round"/>
</g>
<defs>
<clipPath id="clip0_901_2714">
<rect width="32" height="32" fill="white"/>
</clipPath>
</defs>
</svg>